<?xml version="1.0" standalone="no"?>
<!DOCTYPE svg PUBLIC "-//W3C//DTD SVG 20010904//EN"
 "http://www.w3.org/TR/2001/REC-SVG-20010904/DTD/svg10.dtd">
<svg version="1.0" xmlns="http://www.w3.org/2000/svg"
 width="558.000000pt" height="558.000000pt" viewBox="0 0 558.000000 558.000000"
 preserveAspectRatio="xMidYMid meet">
<metadata>
Created by potrace 1.14, written by Peter Selinger 2001-2017
</metadata>
<g transform="translate(0.000000,558.000000) scale(0.100000,-0.100000)"
fill="#000000" stroke="none">
<path d="M183 4492 c-13 -8 -52 -92 -133 -281 -41 -94 -51 -127 -43 -140 5 -9
163 -75 349 -148 523 -203 498 -192 479 -213 -42 -46 -24 -122 134 -559 45
-126 48 -148 25 -192 -17 -34 -15 -73 4 -75 6 -1 18 -2 26 -3 24 -2 73 -49 91
-88 10 -21 47 -99 83 -173 76 -160 84 -179 77 -190 -3 -4 -35 8 -71 27 -97 52
-116 48 -160 -27 -32 -55 -154 -336 -154 -355 0 -38 501 -237 755 -299 57 -14
158 -31 235 -41 70 -9 247 -6 315 5 88 14 204 53 254 84 57 37 106 93 139 161
42 87 110 272 121 329 29 157 -36 315 -188 458 -39 38 -89 80 -111 94 -22 15
-43 37 -46 48 -3 14 19 70 65 164 88 178 101 208 101 240 0 35 -32 78 -97 132
-30 25 -62 52 -71 61 -9 8 -58 42 -107 76 -356 239 -1054 559 -1825 838 -191
68 -229 79 -247 67z m1432 -1095 c88 -41 210 -98 270 -127 61 -29 138 -65 173
-81 34 -16 62 -33 62 -38 0 -25 -140 -25 -231 0 -21 5 -57 13 -80 18 -24 5
-89 19 -144 30 -55 12 -133 28 -173 36 -116 23 -163 66 -191 176 -11 40 -24
87 -30 102 -6 16 -9 33 -6 37 3 5 47 -10 98 -34 51 -24 164 -77 252 -119z m30
-696 c292 -105 498 -230 669 -405 84 -87 113 -126 94 -127 -7 0 -22 -3 -33 -6
-11 -2 -72 -5 -135 -5 -142 0 -285 23 -479 79 l-53 15 7 42 c11 62 7 94 -19
145 -13 25 -43 84 -67 131 -62 119 -80 160 -71 160 4 0 43 -13 87 -29z"/>
<path d="M2640 4409 c-49 -30 -190 -150 -191 -163 -4 -26 -1 -47 14 -112 9
-38 32 -136 51 -219 20 -82 54 -231 76 -330 22 -99 45 -198 50 -220 35 -150
97 -455 116 -570 2 -16 15 -88 28 -160 24 -134 23 -160 -10 -192 -15 -15 -13
-19 20 -47 36 -32 37 -35 51 -156 3 -25 7 -54 9 -65 2 -11 9 -68 16 -127 12
-98 11 -108 -5 -124 -17 -17 -16 -19 5 -36 12 -10 32 -18 44 -18 24 0 215 150
232 182 11 20 11 59 0 131 l-4 28 41 -24 c23 -13 100 -61 171 -105 77 -49 139
-82 155 -82 26 0 64 21 93 50 8 8 41 38 73 65 98 84 98 84 91 140 -3 28 -8 61
-12 75 -3 14 17 -14 46 -62 95 -157 221 -261 307 -252 41 4 56 11 198 102 125
79 156 112 176 185 l14 47 70 -105 c74 -113 110 -145 169 -147 41 -1 62 13
219 149 67 59 109 89 112 81 6 -19 56 -191 60 -208 5 -22 55 -203 60 -218 4
-11 -10 -12 -72 -7 -151 13 -373 5 -457 -17 -28 -7 -61 -30 -108 -76 -37 -36
-68 -68 -68 -72 0 -9 1069 -10 1074 -1 6 9 -16 84 -105 366 -39 127 -93 311
-119 410 -26 99 -60 225 -74 280 -15 55 -36 134 -47 175 -29 108 -57 245 -64
320 -3 36 -8 79 -10 95 -2 17 -6 75 -10 130 -8 112 -8 111 -19 143 -15 45 -58
23 -213 -109 -49 -41 -61 -68 -58 -129 3 -72 15 -201 20 -220 2 -8 7 -40 10
-70 4 -30 10 -76 14 -102 19 -115 -5 -628 -28 -628 -18 0 -150 280 -166 350
-2 8 -15 58 -29 110 -21 80 -74 343 -90 445 -2 17 -10 62 -16 100 -7 39 -14
79 -15 90 -19 121 -28 145 -54 145 -21 0 -215 -160 -224 -185 -6 -15 -3 -43
18 -185 7 -52 17 -115 21 -140 6 -43 2 -39 -62 72 -38 65 -95 154 -128 198
-115 156 -320 340 -379 340 -25 0 -154 -75 -251 -146 l-29 -21 62 -37 62 -38
-40 -26 c-70 -45 -71 -68 -16 -352 25 -124 47 -238 50 -253 2 -16 -26 31 -63
105 -116 229 -215 367 -287 400 -37 17 -69 3 -152 -67 -42 -36 -80 -61 -84
-57 -5 6 -123 493 -135 562 -3 14 -7 32 -10 40 -3 8 -19 78 -35 155 -35 161
-32 148 -60 285 -33 164 -36 167 -99 129z m1266 -1324 c156 -246 261 -518 279
-725 l6 -75 -57 85 c-68 101 -150 268 -199 403 -30 85 -88 285 -100 348 -2 11
-7 30 -10 42 -17 59 -16 62 7 32 13 -16 46 -65 74 -110z m-746 -162 c76 -122
230 -458 230 -500 0 -12 -259 115 -287 141 -7 6 -15 27 -18 46 -3 19 -8 48
-11 63 -3 16 -7 38 -9 50 -1 12 -8 62 -15 111 -12 85 -11 89 10 118 17 23 21
38 16 66 l-7 37 21 -25 c11 -14 42 -62 70 -107z"/>
<path d="M1031 1463 c-94 -47 -124 -215 -55 -315 61 -87 204 -88 261 -1 14 21
13 23 -18 42 l-33 20 -24 -24 c-40 -40 -100 -28 -128 26 -23 46 -15 131 16
164 31 33 92 35 113 4 15 -20 16 -20 48 -4 19 10 35 19 37 20 2 2 -4 15 -13
28 -35 54 -136 73 -204 40z"/>
<path d="M1606 1471 c-2 -3 -3 -90 -3 -193 0 -183 1 -188 21 -189 58 -3 62 2
59 78 l-1 59 37 1 c37 1 39 -1 71 -67 31 -65 35 -68 71 -72 21 -2 42 -2 47 0
6 2 -6 35 -25 74 l-36 71 26 21 c32 26 47 64 43 109 -9 88 -46 110 -194 112
-62 1 -115 -1 -116 -4z m214 -81 c16 -10 16 -58 1 -73 -6 -6 -40 -12 -74 -13
l-63 -2 -1 47 -2 47 63 1 c35 1 69 -3 76 -7z"/>
<path d="M2275 1469 c-2 -3 -4 -90 -4 -192 l0 -187 139 0 140 0 0 38 0 38 -97
-1 -98 0 0 45 0 44 47 1 c54 0 57 2 62 43 4 35 6 33 -77 34 -35 0 -37 2 -35
29 3 34 11 37 107 37 80 0 93 8 82 51 l-7 26 -128 0 c-70 0 -129 -2 -131 -6z"/>
<path d="M3025 1471 c-8 -14 -145 -375 -142 -377 4 -4 32 -6 58 -5 21 1 28 8
38 40 l11 39 66 4 c36 1 69 1 74 -2 4 -3 13 -22 19 -42 12 -37 14 -38 58 -38
39 0 44 2 38 18 -4 9 -36 94 -72 187 -36 94 -66 172 -69 174 -7 8 -74 9 -79 2z
m71 -195 c6 -25 4 -26 -35 -26 l-41 0 14 38 c8 20 17 46 21 57 7 18 9 17 21
-11 7 -17 16 -43 20 -58z"/>
<path d="M3518 1460 c-2 -8 -2 -26 0 -40 3 -24 7 -25 58 -23 l54 3 0 -155 0
-155 40 0 40 0 0 154 0 155 28 -1 c82 -2 83 -1 80 40 l-3 37 -147 0 c-124 0
-148 -2 -150 -15z"/>
<path d="M4175 1470 c-2 -3 -4 -90 -4 -193 l0 -187 40 0 c36 0 39 2 39 28 1
50 1 307 1 332 -1 23 -5 26 -37 26 -19 0 -37 -3 -39 -6z"/>
<path d="M4652 1336 c27 -78 58 -163 67 -190 10 -28 25 -52 36 -56 24 -9 66 0
70 14 2 6 31 88 64 182 34 94 61 175 61 180 0 5 -18 10 -39 10 -37 0 -41 -2
-54 -40 -22 -60 -65 -198 -69 -221 -2 -11 -24 41 -48 115 -25 74 -46 137 -47
139 -1 2 -22 4 -47 6 l-44 1 50 -140z"/>
<path d="M5300 1283 l0 -193 65 -1 c36 0 94 0 130 0 36 0 70 0 76 0 6 1 9 17
7 39 l-3 37 -95 0 -95 0 -3 46 -3 45 56 -1 55 -2 0 42 0 41 -55 -3 -55 -3 0
34 0 35 93 -2 92 -1 3 39 3 40 -136 0 -135 0 0 -192z"/>
</g>
</svg>
